<?xml version="1.0" encoding="UTF-8"?>
<svg id="Layer_1" xmlns="http://www.w3.org/2000/svg" version="1.1" viewBox="0 0 1280 1024">
  <!-- Generator: Adobe Illustrator 30.0.0, SVG Export Plug-In . SVG Version: 2.1.1 Build 123)  -->
  <defs>
    <style>
      .st0 {
        fill: #ed1c24;
      }

      .st0, .st1 {
        stroke: #000;
        stroke-miterlimit: 10;
      }

      .st2 {
        fill: #fff;
        font-family: ArialRoundedMTBold, 'Arial Rounded MT Bold';
        font-size: 128.15px;
      }

      .st2, .st3 {
        isolation: isolate;
      }

      .st1 {
        fill: #ffc20e;
      }

      .st4 {
        fill: #21409a;
      }
    </style>
  </defs>
  <rect class="st1" x="571.97" y="306.45" width="34.28" height="318.63"/>
  <rect class="st1" x="542.59" y="348.08" width="34.28" height="318.63"/>
  <rect class="st1" x="589.11" y="328.49" width="34.28" height="318.63"/>
  <rect class="st1" x="633.19" y="345.63" width="34.28" height="318.63"/>
  <rect class="st1" x="679.72" y="328.49" width="34.28" height="318.63"/>
  <rect class="st1" x="733.6" y="326.04" width="34.28" height="318.63"/>
  <path class="st0" d="M765.32,553.09c0,60.63,30.38,115.79,80,156.92v26.71h-15.11c-12.29-10.8-27.74-20.35-45.66-28.19-33.56-14.68-75.68-23.43-121.42-23.43-39.63,0-76.55,6.56-107.52,17.88-23.86,8.7-44.2,20.22-59.55,33.74h-15.1v-35.55c45.28-31.91,75.08-86.33,75.08-148.08s-29.8-116.15-75.08-148.06v-35.54h364.38v26.68c-49.62,41.12-80,96.29-80,156.91h0Z"/>
  <g>
    <path class="st4" d="M647.41,1015.73c-67.5,0-132.99-13.23-194.63-39.29-59.54-25.18-113.02-61.24-158.94-107.16-45.92-45.92-81.97-99.39-107.15-158.94-26.06-61.63-39.29-127.12-39.29-194.62s13.23-132.99,39.29-194.63c25.18-59.54,61.23-113.02,107.16-158.93,45.92-45.92,99.39-81.98,158.94-107.16,61.63-26.07,127.12-39.29,194.63-39.29s132.99,13.23,194.63,39.29c59.54,25.18,113.02,61.24,158.94,107.16,45.92,45.92,81.98,99.39,107.16,158.94,26.07,61.65,39.29,127.13,39.29,194.63s-13.23,132.99-39.29,194.63c-25.18,59.54-61.24,113.02-107.16,158.94-45.92,45.92-99.39,81.98-158.94,107.16-61.63,26.07-127.12,39.29-194.63,39.29h-.01s0-.01,0-.01ZM275.05,602.71c40.45,173.88,193.57,295.32,372.36,295.32s331.91-121.44,372.36-295.32l.08-.36H274.96l.08.36h0ZM647.41,133.42c-178.8,0-331.91,121.44-372.37,295.32l-.08.36h744.88l-.08-.36c-40.44-173.88-193.56-295.32-372.35-295.32h0Z"/>
    <path d="M647.41,16c33.9,0,67.8,3.41,100.72,10.15,32.08,6.57,63.65,16.37,93.8,29.12,29.62,12.53,58.17,28.03,84.88,46.08,26.47,17.87,51.34,38.41,73.96,61.02s43.15,47.49,61.02,73.96c18.04,26.71,33.55,55.27,46.08,84.88,12.76,30.16,22.55,61.72,29.12,93.8,6.74,32.92,10.15,66.8,10.15,100.72s-3.41,67.8-10.15,100.72c-6.57,32.08-16.37,63.65-29.12,93.8-12.53,29.62-28.03,58.17-46.08,84.88-17.87,26.47-38.41,51.34-61.02,73.96-22.62,22.62-47.49,43.15-73.96,61.02-26.71,18.04-55.27,33.55-84.88,46.08-30.16,12.76-61.72,22.55-93.8,29.12-32.92,6.74-66.8,10.15-100.72,10.15s-67.8-3.41-100.72-10.15c-32.08-6.57-63.65-16.37-93.8-29.12-29.62-12.53-58.17-28.03-84.88-46.08-26.47-17.87-51.34-38.41-73.96-61.02-22.62-22.62-43.15-47.49-61.02-73.96-18.04-26.71-33.55-55.27-46.08-84.88-12.76-30.16-22.55-61.72-29.12-93.8-6.74-32.92-10.15-66.8-10.15-100.72s3.41-67.8,10.15-100.72c6.57-32.08,16.37-63.65,29.12-93.8,12.54-29.61,28.03-58.17,46.08-84.87,17.88-26.47,38.41-51.34,61.02-73.96s47.49-43.15,73.96-61.02c26.71-18.04,55.27-33.55,84.88-46.08,30.16-12.76,61.72-22.55,93.8-29.12,32.92-6.74,66.8-10.15,100.72-10.15M274.6,429.39h745.62l-.16-.72c-40.48-174.01-193.72-295.54-372.64-295.54s-332.17,121.53-372.64,295.56l-.16.72M647.41,898.31c178.93,0,332.16-121.52,372.64-295.54l.16-.72H274.6l.16.72c40.48,174.01,193.71,295.54,372.64,295.54M647.41,15.42c-276.31,0-500.31,223.99-500.31,500.3s223.99,500.3,500.3,500.3,500.3-223.99,500.3-500.3S923.72,15.42,647.41,15.42h0ZM275.34,428.81c39.33-169.1,191-295.1,372.07-295.1s332.73,126,372.07,295.1H275.34ZM647.41,897.73c-181.08,0-332.74-126-372.08-295.1h744.15c-39.34,169.09-191,295.1-372.08,295.1h.01Z"/>
  </g>
  <g class="st3">
    <g class="st3">
      <g class="st3">
        <g class="st3">
          <text class="st2" transform="translate(461.79 551.62)"><tspan x="0" y="0">SNIPS</tspan></text>
        </g>
      </g>
    </g>
  </g>
</svg>